<?xml version="1.0" encoding="UTF-8"?>
<svg xmlns="http://www.w3.org/2000/svg" xmlns:xlink="http://www.w3.org/1999/xlink" width="142.510529" height="46.494133" viewBox="0 0 142.510529 46.494133">
<defs>
<clipPath id="clip-0">
<path clip-rule="nonzero" d="M 77 41 L 81 41 L 81 46.492188 L 77 46.492188 Z M 77 41 "/>
</clipPath>
<clipPath id="clip-1">
<path clip-rule="nonzero" d="M 95 41 L 99 41 L 99 46.492188 L 95 46.492188 Z M 95 41 "/>
</clipPath>
<clipPath id="clip-2">
<path clip-rule="nonzero" d="M 99 41 L 103 41 L 103 46.492188 L 99 46.492188 Z M 99 41 "/>
</clipPath>
<clipPath id="clip-3">
<path clip-rule="nonzero" d="M 139 41 L 142.511719 41 L 142.511719 46 L 139 46 Z M 139 41 "/>
</clipPath>
</defs>
<path fill-rule="nonzero" fill="rgb(9.803772%, 9.803772%, 9.803772%)" fill-opacity="1" d="M 56.652344 13.824219 C 53.988281 13.824219 51.589844 15.433594 50.578125 17.898438 C 49.570312 20.363281 50.148438 23.195312 52.042969 25.0625 C 53.941406 26.933594 56.777344 27.472656 59.230469 26.429688 C 61.679688 25.382812 63.253906 22.964844 63.21875 20.300781 C 63.226562 18.5625 62.535156 16.898438 61.296875 15.679688 C 60.0625 14.460938 58.386719 13.792969 56.652344 13.824219 Z M 56.652344 25 C 54.148438 24.921875 52.195312 22.804688 52.316406 20.300781 C 52.214844 17.835938 54.1875 15.785156 56.652344 15.785156 C 59.121094 15.785156 61.089844 17.835938 60.988281 20.300781 C 61.109375 22.804688 59.15625 24.917969 56.652344 24.996094 Z M 56.652344 25 "/>
<path fill-rule="nonzero" fill="rgb(9.803772%, 9.803772%, 9.803772%)" fill-opacity="1" d="M 70.402344 19.472656 C 69.101562 18.933594 67.976562 18.46875 67.976562 17.433594 C 67.976562 16.503906 68.847656 15.800781 70.007812 15.800781 C 71.039062 15.839844 72.03125 16.21875 72.828125 16.875 L 73.757812 15.128906 C 72.714844 14.25 71.386719 13.785156 70.023438 13.824219 C 67.617188 13.824219 65.800781 15.390625 65.800781 17.46875 C 65.800781 19.652344 67.707031 20.476562 69.390625 21.199219 C 70.722656 21.773438 71.875 22.269531 71.875 23.328125 C 71.875 24.46875 70.890625 24.976562 69.917969 24.976562 C 68.730469 24.921875 67.601562 24.460938 66.71875 23.667969 L 65.554688 25.28125 C 66.726562 26.375 68.277344 26.976562 69.878906 26.957031 C 72.324219 26.957031 74.035156 25.445312 74.035156 23.277344 C 74.035156 20.976562 72.105469 20.175781 70.402344 19.472656 Z M 70.402344 19.472656 "/>
<path fill-rule="nonzero" fill="rgb(9.803772%, 9.803772%, 9.803772%)" fill-opacity="1" d="M 84.71875 14.042969 L 76.484375 14.042969 L 76.484375 15.820312 L 79.585938 15.820312 L 79.585938 26.738281 L 81.601562 26.738281 L 81.601562 15.820312 L 84.722656 15.820312 Z M 84.71875 14.042969 "/>
<path fill-rule="nonzero" fill="rgb(9.803772%, 9.803772%, 9.803772%)" fill-opacity="1" d="M 35.175781 6.085938 C 29.3125 0.171875 20.460938 -1.621094 12.757812 1.542969 C 5.050781 4.707031 0.015625 12.203125 0 20.53125 C -0.015625 28.859375 4.992188 36.375 12.6875 39.566406 C 20.378906 42.761719 29.238281 41 35.121094 35.105469 C 38.847656 31.382812 45.34375 26.238281 45.34375 20.566406 C 45.339844 14.925781 38.867188 9.808594 35.175781 6.085938 Z M 34.140625 32.242188 C 31.058594 35.332031 26.875 37.066406 22.511719 37.0625 C 22 37.0625 21.496094 37.035156 21 36.988281 C 20.746094 36.964844 20.492188 36.933594 20.242188 36.898438 C 19.746094 36.96875 19.242188 37.015625 18.730469 37.039062 C 18.480469 37.050781 18.230469 37.058594 17.976562 37.058594 C 8.886719 37.058594 1.519531 29.691406 1.519531 20.605469 C 1.519531 11.515625 8.886719 4.148438 17.976562 4.148438 C 18.230469 4.148438 18.480469 4.15625 18.726562 4.167969 C 19.238281 4.191406 19.742188 4.242188 20.238281 4.308594 C 20.488281 4.273438 20.742188 4.242188 20.992188 4.21875 C 21.492188 4.175781 21.996094 4.144531 22.507812 4.144531 C 26.894531 4.144531 31.097656 5.898438 34.183594 9.019531 C 37.140625 12 42.324219 16.097656 42.324219 20.609375 C 42.324219 25.148438 37.121094 29.261719 34.140625 32.242188 Z M 34.140625 32.242188 "/>
<path fill-rule="nonzero" fill="rgb(84.312439%, 15.686035%, 39.215088%)" fill-opacity="1" d="M 6.054688 20.609375 C 6.046875 12.394531 12.105469 5.4375 20.242188 4.3125 C 10.125 4.554688 3.03125 11.785156 3.03125 20.609375 C 3.03125 29.433594 11.539062 37.144531 20.242188 36.90625 C 12.113281 35.765625 6.066406 28.816406 6.054688 20.609375 Z M 6.054688 20.609375 "/>
<path fill-rule="nonzero" fill="rgb(54.901123%, 9.803772%, 37.254333%)" fill-opacity="1" d="M 31.121094 32.242188 C 28.085938 35.277344 24.179688 36.546875 20.246094 36.90625 C 20.496094 36.941406 20.746094 36.972656 21.003906 36.996094 C 21.5 37.039062 22.003906 37.070312 22.511719 37.070312 C 26.875 37.070312 31.0625 35.332031 34.140625 32.242188 C 37.121094 29.261719 42.316406 25.148438 42.316406 20.609375 C 42.316406 16.097656 37.136719 12.003906 34.183594 9.027344 C 31.101562 5.90625 26.894531 4.148438 22.507812 4.152344 C 21.996094 4.152344 21.492188 4.179688 20.996094 4.226562 C 20.742188 4.25 20.488281 4.28125 20.242188 4.316406 C 24.199219 4.675781 28.511719 6.355469 31.164062 9.027344 C 34.117188 12.003906 39.292969 16.097656 39.292969 20.609375 C 39.296875 25.148438 34.101562 29.261719 31.121094 32.242188 Z M 31.121094 32.242188 "/>
<path fill-rule="nonzero" fill="rgb(54.901123%, 9.803772%, 37.254333%)" fill-opacity="1" d="M 3.03125 20.609375 C 3.03125 11.789062 10.121094 4.558594 20.242188 4.3125 C 19.746094 4.246094 19.242188 4.195312 18.730469 4.171875 C 18.480469 4.160156 18.230469 4.152344 17.980469 4.152344 C 8.890625 4.152344 1.523438 11.519531 1.523438 20.609375 C 1.523438 29.699219 8.890625 37.066406 17.980469 37.066406 C 18.234375 37.066406 18.484375 37.058594 18.734375 37.046875 C 19.246094 37.023438 19.75 36.96875 20.246094 36.90625 C 11.550781 37.144531 3.03125 29.429688 3.03125 20.609375 Z M 3.03125 20.609375 "/>
<path fill-rule="nonzero" fill="rgb(84.312439%, 15.686035%, 39.215088%)" fill-opacity="1" d="M 29.609375 32.242188 C 27.078125 34.773438 23.789062 36.414062 20.242188 36.90625 C 24.179688 36.546875 28.085938 35.277344 31.117188 32.242188 C 34.097656 29.261719 39.292969 25.148438 39.292969 20.609375 C 39.292969 16.097656 34.113281 12 31.160156 9.027344 C 28.511719 6.355469 24.195312 4.675781 20.238281 4.3125 C 23.808594 4.808594 27.113281 6.464844 29.648438 9.027344 C 32.601562 12 37.78125 16.097656 37.78125 20.609375 C 37.785156 25.148438 32.589844 29.261719 29.609375 32.242188 Z M 29.609375 32.242188 "/>
<path fill-rule="nonzero" fill="rgb(9.803772%, 9.803772%, 9.803772%)" fill-opacity="1" d="M 51.695312 36.726562 L 54.097656 36.726562 L 54.097656 37.121094 L 51.238281 37.121094 L 51.238281 32.179688 L 54.03125 32.179688 L 54.03125 32.574219 L 51.695312 32.574219 L 51.695312 34.410156 L 53.878906 34.410156 L 53.878906 34.8125 L 51.695312 34.8125 Z M 51.695312 36.726562 "/>
<path fill-rule="nonzero" fill="rgb(9.803772%, 9.803772%, 9.803772%)" fill-opacity="1" d="M 57.445312 36.5625 C 57.445312 36.753906 57.480469 36.835938 57.65625 36.835938 C 57.730469 36.832031 57.800781 36.816406 57.871094 36.792969 L 57.894531 37.085938 C 57.765625 37.152344 57.625 37.183594 57.480469 37.183594 C 57.226562 37.207031 57.015625 36.996094 57.03125 36.746094 C 56.722656 37.050781 56.300781 37.214844 55.871094 37.203125 C 55.304688 37.285156 54.804688 36.832031 54.835938 36.261719 C 54.835938 35.273438 55.738281 35.085938 56.53125 35.085938 C 56.730469 35.085938 56.851562 35.09375 56.988281 35.101562 L 56.988281 34.753906 C 56.988281 34.21875 56.839844 33.933594 56.230469 33.933594 C 55.679688 33.933594 55.488281 34.152344 55.410156 34.5625 L 54.980469 34.488281 C 55.089844 33.839844 55.511719 33.566406 56.257812 33.566406 C 57.089844 33.566406 57.441406 33.894531 57.441406 34.757812 Z M 56.996094 35.46875 C 56.851562 35.453125 56.710938 35.445312 56.566406 35.449219 C 56.089844 35.449219 55.316406 35.484375 55.316406 36.191406 C 55.316406 36.535156 55.4375 36.835938 55.976562 36.835938 C 56.367188 36.820312 56.734375 36.648438 56.996094 36.355469 Z M 56.996094 35.46875 "/>
<path fill-rule="nonzero" fill="rgb(9.803772%, 9.803772%, 9.803772%)" fill-opacity="1" d="M 60.976562 34.617188 L 60.527344 34.671875 C 60.445312 34.210938 60.3125 33.953125 59.742188 33.953125 C 59.132812 33.953125 58.992188 34.21875 58.992188 34.519531 C 58.992188 34.929688 59.296875 35.027344 59.824219 35.15625 C 60.464844 35.3125 61.039062 35.449219 61.039062 36.207031 C 61.039062 36.804688 60.589844 37.203125 59.75 37.203125 C 58.984375 37.203125 58.5 36.910156 58.398438 36.144531 L 58.835938 36.070312 C 58.875 36.539062 59.304688 36.878906 59.773438 36.804688 C 60.230469 36.804688 60.578125 36.667969 60.578125 36.226562 C 60.578125 35.816406 60.292969 35.734375 59.785156 35.605469 C 59.207031 35.453125 58.523438 35.367188 58.523438 34.566406 C 58.523438 33.890625 59.101562 33.5625 59.757812 33.5625 C 60.398438 33.472656 60.972656 33.96875 60.976562 34.617188 Z M 60.976562 34.617188 "/>
<path fill-rule="nonzero" fill="rgb(9.803772%, 9.803772%, 9.803772%)" fill-opacity="1" d="M 63.714844 36.984375 C 63.476562 37.125 63.203125 37.199219 62.925781 37.203125 C 62.304688 37.203125 61.996094 36.921875 61.996094 36.269531 L 61.996094 34.019531 L 61.449219 34.019531 L 61.449219 33.636719 L 61.996094 33.636719 L 61.996094 32.628906 L 62.453125 32.5625 L 62.453125 33.632812 L 63.429688 33.632812 L 63.429688 34.015625 L 62.453125 34.015625 L 62.453125 36.207031 C 62.453125 36.601562 62.535156 36.828125 62.992188 36.828125 C 63.210938 36.820312 63.421875 36.757812 63.613281 36.648438 Z M 63.714844 36.984375 "/>
<path fill-rule="nonzero" fill="rgb(9.803772%, 9.803772%, 9.803772%)" fill-opacity="1" d="M 64.105469 35.378906 C 64.105469 34.105469 64.84375 33.566406 65.722656 33.566406 C 66.679688 33.566406 67.070312 34.210938 67.070312 35.046875 C 67.0625 35.183594 67.054688 35.324219 67.035156 35.46875 L 64.589844 35.46875 C 64.617188 36.515625 65.101562 36.792969 65.707031 36.792969 C 66.136719 36.855469 66.53125 36.558594 66.589844 36.132812 L 67.019531 36.214844 C 66.886719 36.835938 66.308594 37.261719 65.675781 37.203125 C 64.460938 37.203125 64.105469 36.34375 64.105469 35.378906 Z M 66.589844 35.097656 C 66.605469 34.382812 66.332031 33.960938 65.683594 33.960938 C 65.054688 33.941406 64.550781 34.472656 64.597656 35.097656 Z M 66.589844 35.097656 "/>
<path fill-rule="nonzero" fill="rgb(9.803772%, 9.803772%, 9.803772%)" fill-opacity="1" d="M 69.789062 34.042969 C 69.332031 33.988281 68.871094 34.136719 68.53125 34.445312 L 68.53125 37.121094 L 68.070312 37.121094 L 68.070312 33.632812 L 68.445312 33.632812 L 68.488281 34.117188 C 68.753906 33.730469 69.207031 33.519531 69.675781 33.566406 L 69.785156 33.566406 Z M 69.789062 34.042969 "/>
<path fill-rule="nonzero" fill="rgb(9.803772%, 9.803772%, 9.803772%)" fill-opacity="1" d="M 73.277344 37.121094 L 72.820312 37.121094 L 72.820312 34.8125 C 72.820312 34.28125 72.636719 33.96875 72.097656 33.96875 C 71.667969 34.003906 71.257812 34.179688 70.9375 34.464844 L 70.9375 37.121094 L 70.480469 37.121094 L 70.480469 33.632812 L 70.882812 33.632812 L 70.910156 34.070312 C 71.28125 33.765625 71.738281 33.589844 72.21875 33.566406 C 72.964844 33.566406 73.277344 33.980469 73.277344 34.765625 Z M 73.277344 37.121094 "/>
<path fill-rule="nonzero" fill="rgb(9.803772%, 9.803772%, 9.803772%)" fill-opacity="1" d="M 76.359375 33.378906 C 76.359375 34.804688 79.089844 34.035156 79.089844 35.804688 C 79.089844 36.816406 78.292969 37.203125 77.40625 37.203125 C 76.53125 37.34375 75.726562 36.710938 75.648438 35.832031 L 76.109375 35.765625 C 76.175781 36.410156 76.757812 36.878906 77.40625 36.808594 C 77.972656 36.808594 78.605469 36.609375 78.605469 35.867188 C 78.605469 34.367188 75.875 35.265625 75.875 33.402344 C 75.875 32.605469 76.546875 32.09375 77.484375 32.09375 C 78.3125 31.988281 79.046875 32.628906 79.058594 33.464844 L 78.625 33.519531 C 78.527344 33.039062 78.335938 32.5 77.503906 32.5 C 76.652344 32.5 76.359375 32.890625 76.359375 33.378906 Z M 76.359375 33.378906 "/>
<path fill-rule="nonzero" fill="rgb(9.803772%, 9.803772%, 9.803772%)" fill-opacity="1" d="M 80.636719 37.121094 L 79.511719 33.628906 L 79.984375 33.628906 L 80.910156 36.652344 L 81.734375 33.628906 L 82.234375 33.628906 L 83.046875 36.640625 L 83.96875 33.628906 L 84.40625 33.628906 L 83.304688 37.117188 L 82.753906 37.117188 L 81.96875 34.140625 L 81.175781 37.117188 Z M 80.636719 37.121094 "/>
<path fill-rule="nonzero" fill="rgb(9.803772%, 9.803772%, 9.803772%)" fill-opacity="1" d="M 85.335938 32.785156 C 85.015625 32.777344 84.859375 32.390625 85.089844 32.164062 C 85.320312 31.941406 85.703125 32.105469 85.703125 32.425781 C 85.722656 32.636719 85.542969 32.808594 85.335938 32.785156 Z M 85.550781 37.121094 L 85.097656 37.121094 L 85.097656 33.632812 L 85.550781 33.632812 Z M 85.550781 37.121094 "/>
<path fill-rule="nonzero" fill="rgb(9.803772%, 9.803772%, 9.803772%)" fill-opacity="1" d="M 88.550781 36.984375 C 88.308594 37.125 88.035156 37.199219 87.757812 37.203125 C 87.136719 37.203125 86.828125 36.921875 86.828125 36.269531 L 86.828125 34.019531 L 86.28125 34.019531 L 86.28125 33.636719 L 86.828125 33.636719 L 86.828125 32.628906 L 87.285156 32.5625 L 87.285156 33.632812 L 88.261719 33.632812 L 88.261719 34.015625 L 87.285156 34.015625 L 87.285156 36.207031 C 87.285156 36.601562 87.367188 36.828125 87.824219 36.828125 C 88.042969 36.820312 88.257812 36.757812 88.449219 36.648438 Z M 88.550781 36.984375 "/>
<path fill-rule="nonzero" fill="rgb(9.803772%, 9.803772%, 9.803772%)" fill-opacity="1" d="M 89.386719 36.738281 L 91.558594 36.738281 L 91.558594 37.121094 L 88.851562 37.121094 L 88.851562 36.800781 L 90.953125 34.015625 L 88.882812 34.015625 L 88.882812 33.628906 L 91.492188 33.628906 L 91.492188 33.957031 Z M 89.386719 36.738281 "/>
<path fill-rule="nonzero" fill="rgb(9.803772%, 9.803772%, 9.803772%)" fill-opacity="1" d="M 92.019531 35.378906 C 92.019531 34.105469 92.757812 33.566406 93.640625 33.566406 C 94.59375 33.566406 94.984375 34.210938 94.984375 35.046875 C 94.976562 35.183594 94.96875 35.324219 94.949219 35.46875 L 92.507812 35.46875 C 92.535156 36.515625 93.019531 36.792969 93.625 36.792969 C 94.050781 36.855469 94.449219 36.558594 94.507812 36.132812 L 94.9375 36.214844 C 94.804688 36.835938 94.226562 37.261719 93.589844 37.203125 C 92.375 37.203125 92.019531 36.34375 92.019531 35.378906 Z M 94.507812 35.097656 C 94.519531 34.382812 94.246094 33.960938 93.597656 33.960938 C 92.96875 33.941406 92.464844 34.472656 92.511719 35.097656 Z M 94.507812 35.097656 "/>
<path fill-rule="nonzero" fill="rgb(9.803772%, 9.803772%, 9.803772%)" fill-opacity="1" d="M 97.703125 34.042969 C 97.246094 33.988281 96.789062 34.136719 96.445312 34.445312 L 96.445312 37.121094 L 95.992188 37.121094 L 95.992188 33.632812 L 96.367188 33.632812 L 96.40625 34.117188 C 96.671875 33.730469 97.128906 33.519531 97.59375 33.566406 L 97.703125 33.566406 Z M 97.703125 34.042969 "/>
<path fill-rule="nonzero" fill="rgb(9.803772%, 9.803772%, 9.803772%)" fill-opacity="1" d="M 98.394531 31.96875 L 98.851562 31.96875 L 98.851562 37.121094 L 98.394531 37.121094 Z M 98.394531 31.96875 "/>
<path fill-rule="nonzero" fill="rgb(9.803772%, 9.803772%, 9.803772%)" fill-opacity="1" d="M 102.449219 36.5625 C 102.449219 36.753906 102.484375 36.835938 102.660156 36.835938 C 102.734375 36.832031 102.804688 36.816406 102.871094 36.792969 L 102.898438 37.085938 C 102.769531 37.152344 102.628906 37.183594 102.484375 37.183594 C 102.230469 37.207031 102.015625 36.996094 102.035156 36.746094 C 101.726562 37.050781 101.304688 37.214844 100.875 37.203125 C 100.308594 37.285156 99.808594 36.828125 99.84375 36.257812 C 99.84375 35.269531 100.742188 35.085938 101.535156 35.085938 C 101.734375 35.085938 101.859375 35.09375 101.992188 35.097656 L 101.992188 34.75 C 101.992188 34.21875 101.84375 33.929688 101.234375 33.929688 C 100.683594 33.929688 100.492188 34.148438 100.417969 34.5625 L 99.984375 34.484375 C 100.09375 33.835938 100.519531 33.5625 101.261719 33.5625 C 102.09375 33.5625 102.449219 33.890625 102.449219 34.757812 Z M 102 35.46875 C 101.855469 35.453125 101.714844 35.445312 101.570312 35.449219 C 101.089844 35.449219 100.320312 35.484375 100.320312 36.191406 C 100.320312 36.535156 100.441406 36.835938 100.980469 36.835938 C 101.371094 36.820312 101.738281 36.648438 102 36.355469 Z M 102 35.46875 "/>
<path fill-rule="nonzero" fill="rgb(9.803772%, 9.803772%, 9.803772%)" fill-opacity="1" d="M 106.5 37.121094 L 106.042969 37.121094 L 106.042969 34.8125 C 106.042969 34.28125 105.859375 33.96875 105.320312 33.96875 C 104.890625 34.003906 104.480469 34.179688 104.160156 34.464844 L 104.160156 37.121094 L 103.703125 37.121094 L 103.703125 33.632812 L 104.105469 33.632812 L 104.132812 34.070312 C 104.503906 33.765625 104.964844 33.589844 105.441406 33.566406 C 106.1875 33.566406 106.5 33.980469 106.5 34.765625 Z M 106.5 37.121094 "/>
<path fill-rule="nonzero" fill="rgb(9.803772%, 9.803772%, 9.803772%)" fill-opacity="1" d="M 110.386719 37.121094 L 109.996094 37.121094 L 109.957031 36.730469 C 109.628906 37.03125 109.199219 37.199219 108.753906 37.203125 C 107.96875 37.203125 107.4375 36.699219 107.4375 35.421875 C 107.4375 34.0625 108.121094 33.5625 108.910156 33.5625 C 109.277344 33.5625 109.632812 33.675781 109.929688 33.890625 L 109.929688 31.96875 L 110.386719 31.96875 Z M 109.929688 34.316406 C 109.636719 34.089844 109.28125 33.964844 108.910156 33.953125 C 108.167969 33.953125 107.902344 34.535156 107.902344 35.441406 C 107.902344 36.398438 108.195312 36.828125 108.863281 36.828125 C 109.273438 36.800781 109.65625 36.617188 109.929688 36.308594 Z M 109.929688 34.316406 "/>
<path fill-rule="nonzero" fill="rgb(9.803772%, 9.803772%, 9.803772%)" fill-opacity="1" d="M 54.269531 43.351562 L 54.269531 40.03125 L 54.726562 40.03125 L 54.726562 43.371094 C 54.726562 44.503906 54.085938 45.058594 52.929688 45.058594 C 51.703125 45.058594 51.207031 44.457031 51.207031 43.363281 L 51.207031 40.03125 L 51.664062 40.03125 L 51.664062 43.335938 C 51.535156 44.105469 52.199219 44.773438 52.972656 44.65625 C 53.804688 44.65625 54.269531 44.335938 54.269531 43.351562 Z M 54.269531 43.351562 "/>
<path fill-rule="nonzero" fill="rgb(9.803772%, 9.803772%, 9.803772%)" fill-opacity="1" d="M 58.824219 44.976562 L 58.367188 44.976562 L 58.367188 42.667969 C 58.367188 42.136719 58.183594 41.820312 57.644531 41.820312 C 57.214844 41.855469 56.804688 42.03125 56.484375 42.320312 L 56.484375 44.976562 L 56.027344 44.976562 L 56.027344 41.488281 L 56.429688 41.488281 L 56.457031 41.925781 C 56.828125 41.621094 57.285156 41.441406 57.765625 41.417969 C 58.511719 41.417969 58.824219 41.835938 58.824219 42.617188 Z M 58.824219 44.976562 "/>
<path fill-rule="nonzero" fill="rgb(9.803772%, 9.803772%, 9.803772%)" fill-opacity="1" d="M 60.242188 40.640625 C 59.917969 40.636719 59.765625 40.246094 59.992188 40.019531 C 60.222656 39.796875 60.609375 39.957031 60.609375 40.277344 C 60.628906 40.488281 60.449219 40.664062 60.242188 40.640625 Z M 60.457031 44.976562 L 60 44.976562 L 60 41.488281 L 60.457031 41.488281 Z M 60.457031 44.976562 "/>
<path fill-rule="nonzero" fill="rgb(9.803772%, 9.803772%, 9.803772%)" fill-opacity="1" d="M 62.480469 44.976562 L 61.109375 41.484375 L 61.605469 41.484375 L 62.746094 44.523438 L 63.871094 41.484375 L 64.328125 41.484375 L 62.992188 44.972656 Z M 62.480469 44.976562 "/>
<path fill-rule="nonzero" fill="rgb(9.803772%, 9.803772%, 9.803772%)" fill-opacity="1" d="M 64.707031 43.234375 C 64.707031 41.960938 65.445312 41.417969 66.324219 41.417969 C 67.28125 41.417969 67.671875 42.066406 67.671875 42.898438 C 67.664062 43.035156 67.65625 43.179688 67.636719 43.324219 L 65.191406 43.324219 C 65.21875 44.367188 65.703125 44.648438 66.3125 44.648438 C 66.738281 44.710938 67.132812 44.414062 67.191406 43.988281 L 67.621094 44.066406 C 67.488281 44.691406 66.910156 45.117188 66.277344 45.058594 C 65.0625 45.058594 64.707031 44.199219 64.707031 43.234375 Z M 67.191406 42.957031 C 67.207031 42.238281 66.933594 41.816406 66.285156 41.816406 C 65.65625 41.796875 65.152344 42.328125 65.199219 42.957031 Z M 67.191406 42.957031 "/>
<path fill-rule="nonzero" fill="rgb(9.803772%, 9.803772%, 9.803772%)" fill-opacity="1" d="M 70.390625 41.894531 C 69.933594 41.84375 69.472656 41.992188 69.132812 42.300781 L 69.132812 44.976562 L 68.675781 44.976562 L 68.675781 41.488281 L 69.050781 41.488281 L 69.09375 41.972656 C 69.359375 41.585938 69.8125 41.375 70.28125 41.417969 L 70.390625 41.417969 Z M 70.390625 41.894531 "/>
<path fill-rule="nonzero" fill="rgb(9.803772%, 9.803772%, 9.803772%)" fill-opacity="1" d="M 73.292969 42.46875 L 72.839844 42.523438 C 72.761719 42.066406 72.628906 41.808594 72.058594 41.808594 C 71.449219 41.808594 71.308594 42.074219 71.308594 42.375 C 71.308594 42.785156 71.613281 42.878906 72.140625 43.007812 C 72.78125 43.167969 73.355469 43.304688 73.355469 44.058594 C 73.355469 44.660156 72.90625 45.054688 72.066406 45.054688 C 71.300781 45.054688 70.8125 44.761719 70.714844 43.996094 L 71.152344 43.921875 C 71.1875 44.394531 71.621094 44.734375 72.085938 44.660156 C 72.542969 44.660156 72.890625 44.523438 72.890625 44.078125 C 72.890625 43.667969 72.605469 43.585938 72.101562 43.457031 C 71.519531 43.308594 70.835938 43.21875 70.835938 42.421875 C 70.835938 41.746094 71.417969 41.417969 72.074219 41.417969 C 72.714844 41.324219 73.289062 41.820312 73.292969 42.46875 Z M 73.292969 42.46875 "/>
<path fill-rule="nonzero" fill="rgb(9.803772%, 9.803772%, 9.803772%)" fill-opacity="1" d="M 74.535156 40.640625 C 74.214844 40.636719 74.058594 40.246094 74.289062 40.019531 C 74.519531 39.796875 74.90625 39.957031 74.90625 40.277344 C 74.925781 40.488281 74.746094 40.664062 74.535156 40.640625 Z M 74.753906 44.976562 L 74.296875 44.976562 L 74.296875 41.488281 L 74.753906 41.488281 Z M 74.753906 44.976562 "/>
<path fill-rule="nonzero" fill="rgb(9.803772%, 9.803772%, 9.803772%)" fill-opacity="1" d="M 77.75 44.839844 C 77.511719 44.976562 77.238281 45.054688 76.960938 45.058594 C 76.339844 45.058594 76.03125 44.777344 76.03125 44.121094 L 76.03125 41.871094 L 75.484375 41.871094 L 75.484375 41.488281 L 76.03125 41.488281 L 76.03125 40.484375 L 76.488281 40.417969 L 76.488281 41.488281 L 77.464844 41.488281 L 77.464844 41.871094 L 76.488281 41.871094 L 76.488281 44.0625 C 76.488281 44.457031 76.570312 44.683594 77.027344 44.683594 C 77.246094 44.671875 77.457031 44.613281 77.648438 44.503906 Z M 77.75 44.839844 "/>
<g clip-path="url(#clip-0)">
<path fill-rule="nonzero" fill="rgb(9.803772%, 9.803772%, 9.803772%)" fill-opacity="1" d="M 77.855469 41.484375 L 78.347656 41.484375 L 79.371094 44.433594 L 80.4375 41.484375 L 80.898438 41.484375 C 80.46875 42.632812 79.945312 44.011719 79.492188 45.175781 C 79.125 46.171875 78.871094 46.492188 78.265625 46.492188 C 78.050781 46.492188 77.835938 46.449219 77.636719 46.371094 L 77.707031 46.015625 C 77.890625 46.074219 78.085938 46.109375 78.277344 46.117188 C 78.605469 46.117188 78.886719 45.878906 79.136719 45 Z M 77.855469 41.484375 "/>
</g>
<path fill-rule="nonzero" fill="rgb(9.803772%, 9.803772%, 9.803772%)" fill-opacity="1" d="M 82.917969 43.25 C 82.917969 42.113281 83.503906 41.417969 84.574219 41.417969 C 85.648438 41.417969 86.082031 42.121094 86.082031 43.160156 C 86.082031 44.308594 85.625 45.058594 84.484375 45.058594 C 83.304688 45.058594 82.917969 44.273438 82.917969 43.25 Z M 85.605469 43.199219 C 85.605469 42.164062 85.21875 41.816406 84.546875 41.816406 C 83.859375 41.816406 83.386719 42.238281 83.386719 43.222656 C 83.386719 44.203125 83.761719 44.667969 84.519531 44.667969 C 85.191406 44.667969 85.605469 44.257812 85.605469 43.199219 Z M 85.605469 43.199219 "/>
<path fill-rule="nonzero" fill="rgb(9.803772%, 9.803772%, 9.803772%)" fill-opacity="1" d="M 88.566406 40.238281 C 88.40625 40.183594 88.238281 40.152344 88.066406 40.148438 C 87.746094 40.148438 87.519531 40.289062 87.519531 40.785156 L 87.519531 41.488281 L 88.511719 41.488281 L 88.511719 41.867188 L 87.519531 41.867188 L 87.519531 44.976562 L 87.0625 44.976562 L 87.0625 41.871094 L 86.53125 41.871094 L 86.53125 41.488281 L 87.0625 41.488281 L 87.0625 40.851562 C 87.0625 40.128906 87.382812 39.761719 88.003906 39.761719 C 88.203125 39.757812 88.402344 39.792969 88.585938 39.871094 Z M 88.566406 40.238281 "/>
<path fill-rule="nonzero" fill="rgb(9.803772%, 9.803772%, 9.803772%)" fill-opacity="1" d="M 92.703125 40.03125 L 94.410156 44.976562 L 93.90625 44.976562 L 93.371094 43.382812 L 91.378906 43.382812 L 90.847656 44.976562 L 90.398438 44.976562 L 92.078125 40.03125 Z M 92.382812 40.40625 L 91.515625 42.980469 L 93.238281 42.980469 Z M 92.382812 40.40625 "/>
<g clip-path="url(#clip-1)">
<path fill-rule="nonzero" fill="rgb(9.803772%, 9.803772%, 9.803772%)" fill-opacity="1" d="M 95.332031 41.488281 L 95.734375 41.488281 L 95.761719 41.910156 C 96.109375 41.597656 96.554688 41.425781 97.019531 41.417969 C 97.75 41.417969 98.28125 41.867188 98.28125 43.144531 C 98.28125 44.503906 97.597656 45.054688 96.808594 45.054688 C 96.433594 45.039062 96.070312 44.90625 95.777344 44.671875 L 95.777344 46.425781 L 95.332031 46.425781 Z M 95.789062 44.25 C 96.074219 44.496094 96.433594 44.640625 96.808594 44.667969 C 97.550781 44.667969 97.816406 44.03125 97.816406 43.125 C 97.816406 42.167969 97.527344 41.792969 96.902344 41.792969 C 96.480469 41.824219 96.085938 42.007812 95.789062 42.3125 Z M 95.789062 44.25 "/>
</g>
<g clip-path="url(#clip-2)">
<path fill-rule="nonzero" fill="rgb(9.803772%, 9.803772%, 9.803772%)" fill-opacity="1" d="M 99.273438 41.488281 L 99.675781 41.488281 L 99.703125 41.910156 C 100.050781 41.597656 100.496094 41.425781 100.960938 41.417969 C 101.691406 41.417969 102.222656 41.867188 102.222656 43.144531 C 102.222656 44.503906 101.542969 45.054688 100.75 45.054688 C 100.375 45.039062 100.011719 44.90625 99.71875 44.671875 L 99.71875 46.425781 L 99.273438 46.425781 Z M 99.730469 44.25 C 100.015625 44.496094 100.375 44.640625 100.75 44.667969 C 101.492188 44.667969 101.757812 44.03125 101.757812 43.125 C 101.757812 42.167969 101.464844 41.792969 100.84375 41.792969 C 100.421875 41.824219 100.027344 42.007812 99.730469 42.3125 Z M 99.730469 44.25 "/>
</g>
<path fill-rule="nonzero" fill="rgb(9.803772%, 9.803772%, 9.803772%)" fill-opacity="1" d="M 103.214844 39.820312 L 103.671875 39.820312 L 103.671875 44.976562 L 103.214844 44.976562 Z M 103.214844 39.820312 "/>
<path fill-rule="nonzero" fill="rgb(9.803772%, 9.803772%, 9.803772%)" fill-opacity="1" d="M 105.105469 40.640625 C 104.785156 40.632812 104.632812 40.246094 104.859375 40.019531 C 105.089844 39.796875 105.476562 39.957031 105.476562 40.277344 C 105.496094 40.488281 105.316406 40.664062 105.105469 40.640625 Z M 105.324219 44.976562 L 104.867188 44.976562 L 104.867188 41.488281 L 105.324219 41.488281 Z M 105.324219 44.976562 "/>
<path fill-rule="nonzero" fill="rgb(9.803772%, 9.803772%, 9.803772%)" fill-opacity="1" d="M 106.28125 43.234375 C 106.28125 41.960938 107.019531 41.417969 107.902344 41.417969 C 108.855469 41.417969 109.246094 42.066406 109.246094 42.898438 C 109.238281 43.035156 109.230469 43.179688 109.210938 43.324219 L 106.765625 43.324219 C 106.792969 44.367188 107.277344 44.648438 107.882812 44.648438 C 108.3125 44.710938 108.707031 44.414062 108.765625 43.988281 L 109.195312 44.066406 C 109.0625 44.691406 108.484375 45.117188 107.851562 45.058594 C 106.636719 45.058594 106.28125 44.199219 106.28125 43.234375 Z M 108.769531 42.957031 C 108.78125 42.238281 108.507812 41.816406 107.859375 41.816406 C 107.230469 41.800781 106.726562 42.328125 106.773438 42.957031 Z M 108.769531 42.957031 "/>
<path fill-rule="nonzero" fill="rgb(9.803772%, 9.803772%, 9.803772%)" fill-opacity="1" d="M 112.960938 44.976562 L 112.574219 44.976562 L 112.53125 44.585938 C 112.203125 44.886719 111.777344 45.054688 111.332031 45.058594 C 110.546875 45.058594 110.015625 44.550781 110.015625 43.273438 C 110.015625 41.917969 110.695312 41.417969 111.488281 41.417969 C 111.855469 41.414062 112.210938 41.53125 112.507812 41.746094 L 112.507812 39.820312 L 112.964844 39.820312 Z M 112.503906 42.171875 C 112.210938 41.945312 111.855469 41.820312 111.488281 41.808594 C 110.742188 41.808594 110.476562 42.386719 110.476562 43.296875 C 110.476562 44.25 110.769531 44.679688 111.4375 44.679688 C 111.847656 44.65625 112.230469 44.46875 112.503906 44.164062 Z M 112.503906 42.171875 "/>
<path fill-rule="nonzero" fill="rgb(9.803772%, 9.803772%, 9.803772%)" fill-opacity="1" d="M 116.0625 41.234375 C 116.0625 42.660156 118.792969 41.890625 118.792969 43.660156 C 118.792969 44.667969 117.996094 45.058594 117.109375 45.058594 C 116.234375 45.195312 115.429688 44.566406 115.355469 43.6875 L 115.808594 43.617188 C 115.882812 44.265625 116.460938 44.730469 117.109375 44.660156 C 117.675781 44.660156 118.308594 44.464844 118.308594 43.71875 C 118.308594 42.21875 115.578125 43.117188 115.578125 41.253906 C 115.578125 40.457031 116.253906 39.945312 117.1875 39.945312 C 118.015625 39.839844 118.753906 40.480469 118.761719 41.316406 L 118.328125 41.371094 C 118.230469 40.894531 118.039062 40.355469 117.207031 40.355469 C 116.355469 40.355469 116.0625 40.742188 116.0625 41.234375 Z M 116.0625 41.234375 "/>
<path fill-rule="nonzero" fill="rgb(9.803772%, 9.803772%, 9.803772%)" fill-opacity="1" d="M 119.527344 43.253906 C 119.527344 42.03125 120.140625 41.417969 121.175781 41.417969 C 121.859375 41.359375 122.445312 41.898438 122.445312 42.585938 L 121.988281 42.648438 C 121.925781 42.085938 121.667969 41.816406 121.136719 41.816406 C 120.589844 41.816406 120 42.113281 120 43.195312 C 120 44.339844 120.5625 44.648438 121.121094 44.648438 C 121.59375 44.703125 122.015625 44.351562 122.042969 43.875 L 122.472656 43.964844 C 122.378906 44.636719 121.769531 45.117188 121.09375 45.058594 C 119.949219 45.058594 119.527344 44.308594 119.527344 43.253906 Z M 119.527344 43.253906 "/>
<path fill-rule="nonzero" fill="rgb(9.803772%, 9.803772%, 9.803772%)" fill-opacity="1" d="M 123.664062 40.640625 C 123.34375 40.636719 123.1875 40.246094 123.417969 40.019531 C 123.648438 39.796875 124.035156 39.957031 124.035156 40.277344 C 124.054688 40.488281 123.875 40.664062 123.664062 40.640625 Z M 123.882812 44.976562 L 123.425781 44.976562 L 123.425781 41.488281 L 123.882812 41.488281 Z M 123.882812 44.976562 "/>
<path fill-rule="nonzero" fill="rgb(9.803772%, 9.803772%, 9.803772%)" fill-opacity="1" d="M 124.839844 43.234375 C 124.839844 41.960938 125.578125 41.417969 126.457031 41.417969 C 127.414062 41.417969 127.804688 42.066406 127.804688 42.898438 C 127.796875 43.035156 127.789062 43.179688 127.769531 43.324219 L 125.324219 43.324219 C 125.351562 44.367188 125.835938 44.648438 126.445312 44.648438 C 126.871094 44.710938 127.265625 44.414062 127.324219 43.988281 L 127.753906 44.066406 C 127.621094 44.691406 127.042969 45.117188 126.410156 45.058594 C 125.195312 45.058594 124.839844 44.199219 124.839844 43.234375 Z M 127.324219 42.957031 C 127.339844 42.238281 127.066406 41.816406 126.417969 41.816406 C 125.789062 41.796875 125.285156 42.328125 125.332031 42.957031 Z M 127.324219 42.957031 "/>
<path fill-rule="nonzero" fill="rgb(9.803772%, 9.803772%, 9.803772%)" fill-opacity="1" d="M 131.609375 44.976562 L 131.148438 44.976562 L 131.148438 42.667969 C 131.148438 42.136719 130.964844 41.820312 130.425781 41.820312 C 129.996094 41.855469 129.589844 42.03125 129.265625 42.320312 L 129.265625 44.976562 L 128.808594 44.976562 L 128.808594 41.488281 L 129.210938 41.488281 L 129.238281 41.925781 C 129.609375 41.621094 130.070312 41.441406 130.550781 41.417969 C 131.292969 41.417969 131.605469 41.835938 131.605469 42.617188 Z M 131.609375 44.976562 "/>
<path fill-rule="nonzero" fill="rgb(9.803772%, 9.803772%, 9.803772%)" fill-opacity="1" d="M 132.542969 43.253906 C 132.542969 42.03125 133.160156 41.417969 134.195312 41.417969 C 134.878906 41.359375 135.464844 41.898438 135.464844 42.585938 L 135.007812 42.648438 C 134.945312 42.085938 134.683594 41.816406 134.152344 41.816406 C 133.605469 41.816406 133.019531 42.113281 133.019531 43.195312 C 133.019531 44.339844 133.578125 44.648438 134.136719 44.648438 C 134.609375 44.703125 135.03125 44.351562 135.058594 43.875 L 135.488281 43.964844 C 135.394531 44.636719 134.789062 45.117188 134.109375 45.058594 C 132.96875 45.058594 132.542969 44.308594 132.542969 43.253906 Z M 132.542969 43.253906 "/>
<path fill-rule="nonzero" fill="rgb(9.803772%, 9.803772%, 9.803772%)" fill-opacity="1" d="M 136.203125 43.234375 C 136.203125 41.960938 136.941406 41.417969 137.824219 41.417969 C 138.777344 41.417969 139.167969 42.066406 139.167969 42.898438 C 139.160156 43.035156 139.152344 43.179688 139.132812 43.324219 L 136.691406 43.324219 C 136.71875 44.367188 137.203125 44.648438 137.808594 44.648438 C 138.234375 44.710938 138.632812 44.414062 138.691406 43.988281 L 139.121094 44.066406 C 138.988281 44.691406 138.410156 45.113281 137.777344 45.058594 C 136.5625 45.058594 136.203125 44.199219 136.203125 43.234375 Z M 138.6875 42.957031 C 138.703125 42.238281 138.429688 41.816406 137.78125 41.816406 C 137.152344 41.796875 136.648438 42.328125 136.695312 42.957031 Z M 138.6875 42.957031 "/>
<g clip-path="url(#clip-3)">
<path fill-rule="nonzero" fill="rgb(9.803772%, 9.803772%, 9.803772%)" fill-opacity="1" d="M 142.449219 42.46875 L 141.996094 42.523438 C 141.917969 42.066406 141.785156 41.808594 141.214844 41.808594 C 140.605469 41.808594 140.464844 42.074219 140.464844 42.375 C 140.464844 42.785156 140.769531 42.878906 141.296875 43.007812 C 141.9375 43.167969 142.511719 43.304688 142.511719 44.058594 C 142.511719 44.660156 142.058594 45.054688 141.21875 45.054688 C 140.457031 45.054688 139.96875 44.761719 139.871094 43.996094 L 140.308594 43.921875 C 140.34375 44.394531 140.777344 44.734375 141.242188 44.660156 C 141.699219 44.660156 142.046875 44.523438 142.046875 44.078125 C 142.046875 43.667969 141.761719 43.585938 141.257812 43.457031 C 140.675781 43.308594 139.992188 43.21875 139.992188 42.421875 C 139.992188 41.746094 140.574219 41.417969 141.230469 41.417969 C 141.871094 41.324219 142.445312 41.820312 142.449219 42.46875 Z M 142.449219 42.46875 "/>
</g>
</svg>
