<?xml version="1.0" encoding="us-ascii" standalone="no"?><svg xmlns="http://www.w3.org/2000/svg" xmlns:xlink="http://www.w3.org/1999/xlink" contentStyleType="text/css" height="593px" preserveAspectRatio="none" style="width:841px;height:593px;background:#FFFFFF;" version="1.1" viewBox="0 0 841 593" width="841px" zoomAndPan="magnify"><defs/><g><!--entity ReSetDaemon--><g id="elem_ReSetDaemon"><rect fill="#FFFFFF" height="39.0679" rx="2.5" ry="2.5" style="stroke:#000000;stroke-width:1.0;" width="114" x="276.5" y="230.14"/><text fill="#000000" font-family="Verdana" font-size="14" lengthAdjust="spacing" textLength="94" x="286.5" y="255.1059">ReSetDaemon</text></g><!--entity MonitorPlugin--><g id="elem_MonitorPlugin"><rect fill="#FFFFFF" height="39.0679" rx="2.5" ry="2.5" style="stroke:#000000;stroke-width:1.0;" width="116" x="413.5" y="448.27"/><text fill="#000000" font-family="Verdana" font-size="14" lengthAdjust="spacing" textLength="96" x="423.5" y="473.2359">MonitorPlugin</text></g><!--entity KeyboardPlugin--><g id="elem_KeyboardPlugin"><rect fill="#FFFFFF" height="39.0679" rx="2.5" ry="2.5" style="stroke:#000000;stroke-width:1.0;" width="127" x="708" y="448.27"/><text fill="#000000" font-family="Verdana" font-size="14" lengthAdjust="spacing" textLength="107" x="718" y="473.2359">KeyboardPlugin</text></g><!--entity MousePlugin--><g id="elem_MousePlugin"><rect fill="#FFFFFF" height="39.0679" rx="2.5" ry="2.5" style="stroke:#000000;stroke-width:1.0;" width="108" x="564.5" y="448.27"/><text fill="#000000" font-family="Verdana" font-size="14" lengthAdjust="spacing" textLength="88" x="574.5" y="473.2359">MousePlugin</text></g><!--entity ReSet--><g id="elem_ReSet"><rect fill="#FFFFFF" height="39.0679" rx="2.5" ry="2.5" style="stroke:#000000;stroke-width:1.0;" width="58" x="559.5" y="12"/><text fill="#000000" font-family="Verdana" font-size="14" lengthAdjust="spacing" textLength="38" x="569.5" y="36.9659">ReSet</text></g><!--entity ThirdPartyApplet--><g id="elem_ThirdPartyApplet"><rect fill="#FFFFFF" height="39.0679" rx="2.5" ry="2.5" style="stroke:#000000;stroke-width:1.0;" width="134" x="368.5" y="12"/><text fill="#000000" font-family="Verdana" font-size="14" lengthAdjust="spacing" textLength="114" x="378.5" y="36.9659">ThirdPartyApplet</text></g><!--entity PipeWire--><g id="elem_PipeWire"><rect fill="#FFFFFF" height="39.0679" rx="2.5" ry="2.5" style="stroke:#000000;stroke-width:1.0;" width="80" x="276.5" y="348.21"/><text fill="#000000" font-family="Verdana" font-size="14" lengthAdjust="spacing" textLength="60" x="286.5" y="373.1759">PipeWire</text></g><!--entity NetworkManager--><g id="elem_NetworkManager"><rect fill="#FFFFFF" height="39.0679" rx="2.5" ry="2.5" style="stroke:#000000;stroke-width:1.0;" width="137" x="12" y="348.21"/><text fill="#000000" font-family="Verdana" font-size="14" lengthAdjust="spacing" textLength="117" x="22" y="373.1759">NetworkManager</text></g><!--entity bluez--><g id="elem_bluez"><rect fill="#FFFFFF" height="39.0679" rx="2.5" ry="2.5" style="stroke:#000000;stroke-width:1.0;" width="57" x="184" y="348.21"/><text fill="#000000" font-family="Verdana" font-size="14" lengthAdjust="spacing" textLength="37" x="194" y="373.1759">bluez</text></g><!--entity Gnome--><g id="elem_Gnome"><rect fill="#FFFFFF" height="39.0679" rx="2.5" ry="2.5" style="stroke:#000000;stroke-width:1.0;" width="68" x="461.5" y="548.34"/><text fill="#000000" font-family="Verdana" font-size="14" lengthAdjust="spacing" textLength="48" x="471.5" y="573.3059">Gnome</text></g><!--entity KDE--><g id="elem_KDE"><rect fill="#FFFFFF" height="39.0679" rx="2.5" ry="2.5" style="stroke:#000000;stroke-width:1.0;" width="47" x="718" y="548.34"/><text fill="#000000" font-family="Verdana" font-size="14" lengthAdjust="spacing" textLength="27" x="728" y="573.3059">KDE</text></g><!--entity Hyprland--><g id="elem_Hyprland"><rect fill="#FFFFFF" height="39.0679" rx="2.5" ry="2.5" style="stroke:#000000;stroke-width:1.0;" width="82" x="577.5" y="548.34"/><text fill="#000000" font-family="Verdana" font-size="14" lengthAdjust="spacing" textLength="62" x="587.5" y="573.3059">Hyprland</text></g><!--entity API--><g id="elem_API"><rect fill="#FFFFFF" height="39.0679" rx="35" ry="35" style="stroke:#000000;stroke-width:1.0;" width="42" x="414.5" y="130.07"/><text fill="#000000" font-family="Verdana" font-size="14" lengthAdjust="spacing" textLength="22" x="424.5" y="155.0359">API</text></g><!--entity PluginSystem--><g id="elem_PluginSystem"><rect fill="#FFFFFF" height="39.0679" rx="35" ry="35" style="stroke:#000000;stroke-width:1.0;" width="111" x="563" y="348.21"/><text fill="#000000" font-family="Verdana" font-size="14" lengthAdjust="spacing" textLength="91" x="573" y="373.1759">PluginSystem</text></g><!--entity ConfigurationFile--><g id="elem_ConfigurationFile"><rect fill="#FFFFFF" height="39.0679" rx="35" ry="35" style="stroke:#000000;stroke-width:1.0;" width="136" x="391.5" y="348.21"/><text fill="#000000" font-family="Verdana" font-size="14" lengthAdjust="spacing" textLength="116" x="401.5" y="373.1759">ConfigurationFile</text></g><!--link ReSet to API--><g id="link_ReSet_API"><path d="M558.55,55.26 C530.52,76.52 489.03,107.99 462.13,128.4 " fill="none" id="ReSet-API" style="stroke:#000000;stroke-width:1.0;"/><polygon fill="#000000" points="562.37,52.36,552.7879,54.6368,558.3942,55.3919,557.639,60.9982,562.37,52.36" style="stroke:#000000;stroke-width:1.0;"/><polygon fill="#000000" points="458.16,131.42,467.746,129.1598,462.1411,128.3949,462.9059,122.79,458.16,131.42" style="stroke:#000000;stroke-width:1.0;"/><text fill="#000000" font-family="Verdana" font-size="13" lengthAdjust="spacing" textLength="20" x="521.5" y="95.967">IPC</text></g><!--link ThirdPartyApplet to API--><g id="link_ThirdPartyApplet_API"><path d="M435.5,57.85 C435.5,77.29 435.5,104.01 435.5,123.42 " fill="none" id="ThirdPartyApplet-API" style="stroke:#000000;stroke-width:1.0;"/><polygon fill="#000000" points="435.5,52.96,431.5,61.96,435.5,57.96,439.5,61.96,435.5,52.96" style="stroke:#000000;stroke-width:1.0;"/><polygon fill="#000000" points="435.5,128.19,439.5,119.19,435.5,123.19,431.5,119.19,435.5,128.19" style="stroke:#000000;stroke-width:1.0;"/><text fill="#000000" font-family="Verdana" font-size="13" lengthAdjust="spacing" textLength="20" x="436.5" y="95.967">IPC</text></g><!--link API to ReSetDaemon--><g id="link_API_ReSetDaemon"><path d="M415.83,169.51 C401.02,183.76 380.44,203.54 363.56,219.77 " fill="none" id="API-to-ReSetDaemon" style="stroke:#000000;stroke-width:1.0;"/><polygon fill="#000000" points="354.2,228.77,361.2982,227.499,362.8551,220.458,355.7569,221.729,354.2,228.77" style="stroke:#000000;stroke-width:1.0;"/></g><!--reverse link ReSetDaemon to PluginSystem--><g id="link_ReSetDaemon_PluginSystem"><path d="M404.24,274.14 C425.98,281.73 449.86,290.45 471.5,299.21 C508.86,314.32 550.53,333.71 579.93,347.83 " fill="none" id="ReSetDaemon-backto-PluginSystem" style="stroke:#000000;stroke-width:1.0;"/><polygon fill="#000000" points="392.11,269.95,396.4777,275.6879,403.4541,273.8631,399.0864,268.1252,392.11,269.95" style="stroke:#000000;stroke-width:1.0;"/></g><!--reverse link ReSet to PluginSystem--><g id="link_ReSet_PluginSystem"><path d="M591.47,65.57 C597.69,134.89 611.93,293.6 616.82,348.02 " fill="none" id="ReSet-backto-PluginSystem" style="stroke:#000000;stroke-width:1.0;"/><polygon fill="#000000" points="590.33,52.97,586.8796,59.302,591.3974,64.9224,594.8479,58.5904,590.33,52.97" style="stroke:#000000;stroke-width:1.0;"/></g><!--reverse link PluginSystem to MonitorPlugin--><g id="link_PluginSystem_MonitorPlugin"><path d="M578.21,395.62 C553.42,412.16 522.25,432.95 500.01,447.79 " fill="none" id="PluginSystem-backto-MonitorPlugin" style="stroke:#000000;stroke-width:1.0;"/><polygon fill="none" points="588.9,388.49,581.6889,388.4922,578.9174,395.1494,586.1285,395.1472,588.9,388.49" style="stroke:#000000;stroke-width:1.0;"/></g><!--reverse link PluginSystem to KeyboardPlugin--><g id="link_PluginSystem_KeyboardPlugin"><path d="M660.08,395.39 C685.94,411.97 718.58,432.89 741.83,447.79 " fill="none" id="PluginSystem-backto-KeyboardPlugin" style="stroke:#000000;stroke-width:1.0;"/><polygon fill="none" points="649.27,388.47,652.1628,395.0754,659.3727,394.9458,656.4799,388.3403,649.27,388.47" style="stroke:#000000;stroke-width:1.0;"/></g><!--reverse link PluginSystem to MousePlugin--><g id="link_PluginSystem_MousePlugin"><path d="M618.5,401.96 C618.5,417.3 618.5,434.95 618.5,447.96 " fill="none" id="PluginSystem-backto-MousePlugin" style="stroke:#000000;stroke-width:1.0;"/><polygon fill="none" points="618.5,389.16,614.5,395.16,618.5,401.16,622.5,395.16,618.5,389.16" style="stroke:#000000;stroke-width:1.0;"/></g><!--link ReSetDaemon to NetworkManager--><g id="link_ReSetDaemon_NetworkManager"><path d="M286.64,272.17 C241.25,292.99 172.79,324.4 127.39,345.23 " fill="none" id="ReSetDaemon-NetworkManager" style="stroke:#000000;stroke-width:1.0;"/><polygon fill="#000000" points="290.91,270.21,281.0617,270.3183,286.3636,272.2908,284.391,277.5926,290.91,270.21" style="stroke:#000000;stroke-width:1.0;"/><polygon fill="#000000" points="123.07,347.21,132.9183,347.1017,127.6164,345.1292,129.589,339.8274,123.07,347.21" style="stroke:#000000;stroke-width:1.0;"/><text fill="#000000" font-family="Verdana" font-size="13" lengthAdjust="spacing" textLength="20" x="223.5" y="314.107">IPC</text></g><!--link ReSetDaemon to PipeWire--><g id="link_ReSetDaemon_PipeWire"><path d="M329.79,275.98 C326.94,295.43 323.03,322.15 320.19,341.56 " fill="none" id="ReSetDaemon-PipeWire" style="stroke:#000000;stroke-width:1.0;"/><polygon fill="#000000" points="330.51,271.08,325.2403,279.4005,329.7809,276.0266,333.1548,280.5671,330.51,271.08" style="stroke:#000000;stroke-width:1.0;"/><polygon fill="#000000" points="319.49,346.34,324.7597,338.0195,320.2191,341.3934,316.8452,336.8529,319.49,346.34" style="stroke:#000000;stroke-width:1.0;"/><text fill="#000000" font-family="Verdana" font-size="13" lengthAdjust="spacing" textLength="20" x="326.5" y="314.107">IPC</text></g><!--link ReSetDaemon to bluez--><g id="link_ReSetDaemon_bluez"><path d="M309.13,274.05 C288.08,294.24 257.83,323.25 236.81,343.42 " fill="none" id="ReSetDaemon-bluez" style="stroke:#000000;stroke-width:1.0;"/><polygon fill="#000000" points="312.7,270.63,303.4379,273.9788,309.0936,274.0933,308.9791,279.749,312.7,270.63" style="stroke:#000000;stroke-width:1.0;"/><polygon fill="#000000" points="233.29,346.79,242.5587,343.4596,236.9032,343.3339,237.0289,337.6784,233.29,346.79" style="stroke:#000000;stroke-width:1.0;"/><text fill="#000000" font-family="Verdana" font-size="13" lengthAdjust="spacing" textLength="20" x="280.5" y="314.107">IPC</text></g><!--link ReSetDaemon to ConfigurationFile--><g id="link_ReSetDaemon_ConfigurationFile"><path d="M354.02,269.58 C375.99,289.81 410.85,321.93 434.43,343.64 " fill="none" id="ReSetDaemon-to-ConfigurationFile" style="stroke:#000000;stroke-width:1.0;"/><polygon fill="#000000" points="437.87,346.82,433.948,337.7857,434.1878,343.4375,428.536,343.6773,437.87,346.82" style="stroke:#000000;stroke-width:1.0;"/><text fill="#000000" font-family="Verdana" font-size="13" lengthAdjust="spacing" textLength="58" x="404.5" y="314.107">load/save</text></g><!--link MonitorPlugin to Gnome--><g id="link_MonitorPlugin_Gnome"><path d="M472.72,494.18 C473.46,502.01 474.63,510.6 476.5,518.34 C478.43,526.33 481.38,534.76 484.39,542.32 " fill="none" id="MonitorPlugin-Gnome" style="stroke:#000000;stroke-width:1.0;"/><polygon fill="#000000" points="472.33,489.34,469.0626,498.6311,472.7299,494.324,477.0369,497.9913,472.33,489.34" style="stroke:#000000;stroke-width:1.0;"/><polygon fill="#000000" points="486.11,546.5,486.3927,536.6552,484.2113,541.8745,478.9919,539.6932,486.11,546.5" style="stroke:#000000;stroke-width:1.0;"/></g><!--link KeyboardPlugin to Gnome--><g id="link_KeyboardPlugin_Gnome"><path d="M711.98,489.96 C658.74,508.87 582.15,536.09 535.78,552.56 " fill="none" id="KeyboardPlugin-Gnome" style="stroke:#000000;stroke-width:1.0;"/><polygon fill="#000000" points="716.53,488.34,706.7087,487.6038,711.8219,490.0235,709.4023,495.1367,716.53,488.34" style="stroke:#000000;stroke-width:1.0;"/><polygon fill="#000000" points="531.15,554.21,540.97,554.9632,535.861,552.5347,538.2895,547.4256,531.15,554.21" style="stroke:#000000;stroke-width:1.0;"/></g><!--link MousePlugin to Gnome--><g id="link_MousePlugin_Gnome"><path d="M558.33,489.25 C543.62,496.39 528.86,505.63 517.5,517.34 C510.79,524.26 505.93,533.56 502.51,542.24 " fill="none" id="MousePlugin-Gnome" style="stroke:#000000;stroke-width:1.0;"/><polygon fill="#000000" points="562.8,487.16,552.9533,487.3684,558.2749,489.2869,556.3564,494.6085,562.8,487.16" style="stroke:#000000;stroke-width:1.0;"/><polygon fill="#000000" points="500.89,546.69,507.7318,539.6055,502.6033,541.9927,500.2161,536.8642,500.89,546.69" style="stroke:#000000;stroke-width:1.0;"/></g><!--link MonitorPlugin to KDE--><g id="link_MonitorPlugin_KDE"><path d="M529.81,489.99 C585.73,510.3 667.93,540.15 711.62,556.02 " fill="none" id="MonitorPlugin-KDE" style="stroke:#000000;stroke-width:1.0;"/><polygon fill="#000000" points="525.3,488.35,532.3845,495.1918,529.9973,490.0633,535.1258,487.6761,525.3,488.35" style="stroke:#000000;stroke-width:1.0;"/><polygon fill="#000000" points="716.1,557.65,708.9972,550.8273,711.3981,555.9493,706.2761,558.3503,716.1,557.65" style="stroke:#000000;stroke-width:1.0;"/></g><!--link KeyboardPlugin to KDE--><g id="link_KeyboardPlugin_KDE"><path d="M766.66,494.16 C764.96,501.98 762.87,510.57 760.5,518.34 C758.06,526.34 754.91,534.89 751.87,542.55 " fill="none" id="KeyboardPlugin-KDE" style="stroke:#000000;stroke-width:1.0;"/><polygon fill="#000000" points="767.69,489.28,761.9264,497.2663,766.6628,494.1734,769.7558,498.9098,767.69,489.28" style="stroke:#000000;stroke-width:1.0;"/><polygon fill="#000000" points="750.15,546.81,757.2246,539.958,752.0192,542.1726,749.8047,536.9672,750.15,546.81" style="stroke:#000000;stroke-width:1.0;"/></g><!--link MousePlugin to KDE--><g id="link_MousePlugin_KDE"><path d="M678.67,489.25 C693.38,496.39 708.14,505.63 719.5,517.34 C726.21,524.26 731.07,533.56 734.49,542.24 " fill="none" id="MousePlugin-KDE" style="stroke:#000000;stroke-width:1.0;"/><polygon fill="#000000" points="674.2,487.16,680.6436,494.6085,678.7251,489.2869,684.0467,487.3684,674.2,487.16" style="stroke:#000000;stroke-width:1.0;"/><polygon fill="#000000" points="736.11,546.69,736.7839,536.8642,734.3967,541.9927,729.2682,539.6055,736.11,546.69" style="stroke:#000000;stroke-width:1.0;"/></g><!--link MonitorPlugin to Hyprland--><g id="link_MonitorPlugin_Hyprland"><path d="M505.17,491.27 C529.01,507.17 560.86,528.42 584.72,544.34 " fill="none" id="MonitorPlugin-Hyprland" style="stroke:#000000;stroke-width:1.0;"/><polygon fill="#000000" points="501.1,488.56,506.3697,496.8805,505.2603,491.3335,510.8073,490.2241,501.1,488.56" style="stroke:#000000;stroke-width:1.0;"/><polygon fill="#000000" points="588.73,547.02,583.4801,538.687,584.5763,544.2366,579.0267,545.3328,588.73,547.02" style="stroke:#000000;stroke-width:1.0;"/></g><!--link KeyboardPlugin to Hyprland--><g id="link_KeyboardPlugin_Hyprland"><path d="M736.79,491.05 C711.85,507.04 678.35,528.52 653.37,544.53 " fill="none" id="KeyboardPlugin-Hyprland" style="stroke:#000000;stroke-width:1.0;"/><polygon fill="#000000" points="740.73,488.53,730.9964,490.0321,736.5241,491.2338,735.3224,496.7615,740.73,488.53" style="stroke:#000000;stroke-width:1.0;"/><polygon fill="#000000" points="649.44,547.04,659.1759,545.5529,653.6501,544.3427,654.8603,538.8168,649.44,547.04" style="stroke:#000000;stroke-width:1.0;"/></g><!--link MousePlugin to Hyprland--><g id="link_MousePlugin_Hyprland"><path d="M618.5,494.13 C618.5,508.73 618.5,527.02 618.5,541.61 " fill="none" id="MousePlugin-Hyprland" style="stroke:#000000;stroke-width:1.0;"/><polygon fill="#000000" points="618.5,489.23,614.5,498.23,618.5,494.23,622.5,498.23,618.5,489.23" style="stroke:#000000;stroke-width:1.0;"/><polygon fill="#000000" points="618.5,546.51,622.5,537.51,618.5,541.51,614.5,537.51,618.5,546.51" style="stroke:#000000;stroke-width:1.0;"/></g><!--SRC=[RL9DIyGm4BtdLyJhGl0k8YoxwYvBfRY2vraxTeDffgIfKd-z_S0mQT9JvhsPnxo-kV5NR52s1hGL3ZyysDgWVCKp-ZrWGnmjo6fFhZHzhQran0c72u6hKgQWliCKdlLP_NRLupGuFspRraHKgLjyrmuPz8B-XznN0HPgT8ouc1v_MVrigU63f_qZgmv3wmpOIdIZgL59RijZU2yxduVEOnF07TbFNVSEl2Rxf0qACJkHzqezJECozzt9OxaJQukPcQLnWfJQH1cmjzme5M-th930l90qib5yAHs7c1iFKKRxp3xYI88PcNR-vxcodUcSqypyITuuzIMfZ7s6eBhju1j5VBIpy78MgwDb33_Q24wKfeFAwKnuehA0YKOumvnG81ErmFm1]--></g></svg>