<?xml version="1.0" encoding="us-ascii" standalone="no"?><svg xmlns="http://www.w3.org/2000/svg" xmlns:xlink="http://www.w3.org/1999/xlink" contentStyleType="text/css" height="511px" preserveAspectRatio="none" style="width:523px;height:511px;background:#FFFFFF;" version="1.1" viewBox="0 0 523 511" width="523px" zoomAndPan="magnify"><defs/><g><!--entity WifiDevice--><g id="elem_WifiDevice"><rect fill="#FFFFFF" height="39.0679" rx="2.5" ry="2.5" style="stroke:#000000;stroke-width:1.0;" width="90" x="336" y="348.2"/><text fill="#000000" font-family="Verdana" font-size="14" lengthAdjust="spacing" textLength="70" x="346" y="373.1659">WifiDevice</text></g><!--entity AccessPoint--><g id="elem_AccessPoint"><rect fill="#FFFFFF" height="39.0679" rx="2.5" ry="2.5" style="stroke:#000000;stroke-width:1.0;" width="99" x="262.5" y="466.27"/><text fill="#000000" font-family="Verdana" font-size="14" lengthAdjust="spacing" textLength="79" x="272.5" y="491.2359">AccessPoint</text></g><!--entity SettingsManager--><g id="elem_SettingsManager"><rect fill="#FFFFFF" height="39.0679" rx="2.5" ry="2.5" style="stroke:#000000;stroke-width:1.0;" width="136" x="12" y="130.07"/><text fill="#000000" font-family="Verdana" font-size="14" lengthAdjust="spacing" textLength="116" x="22" y="155.0359">SettingsManager</text></g><!--entity Connection--><g id="elem_Connection"><rect fill="#FFFFFF" height="39.0679" rx="2.5" ry="2.5" style="stroke:#000000;stroke-width:1.0;" width="96" x="235" y="248.14"/><text fill="#000000" font-family="Verdana" font-size="14" lengthAdjust="spacing" textLength="76" x="245" y="273.1059">Connection</text></g><!--entity ActiveConnection--><g id="elem_ActiveConnection"><rect fill="#FFFFFF" height="39.0679" rx="2.5" ry="2.5" style="stroke:#000000;stroke-width:1.0;" width="136" x="381" y="130.07"/><text fill="#000000" font-family="Verdana" font-size="14" lengthAdjust="spacing" textLength="116" x="391" y="155.0359">ActiveConnection</text></g><!--entity NetworkManager--><g id="elem_NetworkManager"><rect fill="#FFFFFF" height="39.0679" rx="2.5" ry="2.5" style="stroke:#000000;stroke-width:1.0;" width="137" x="178.5" y="12"/><text fill="#000000" font-family="Verdana" font-size="14" lengthAdjust="spacing" textLength="117" x="188.5" y="36.9659">NetworkManager</text></g><!--link NetworkManager to Connection--><g id="link_NetworkManager_Connection"><path d="M241.66,51.36 C234.95,77.94 225.39,127.86 235,169.14 C241.8,198.36 255.4965,223.8179 267.3065,242.7679 " fill="none" id="NetworkManager-to-Connection" style="stroke:#000000;stroke-width:1.0;"/><polygon fill="#000000" points="270.48,247.86,269.1145,238.1063,267.8354,243.6166,262.3251,242.3376,270.48,247.86" style="stroke:#000000;stroke-width:1.0;"/><text fill="#000000" font-family="Verdana" font-size="13" lengthAdjust="spacing" textLength="126" x="236" y="154.997">activates/deactivates</text></g><!--link SettingsManager to Connection--><g id="link_SettingsManager_Connection"><path d="M97.25,169.61 C111.55,184.45 133.01,204.72 155,218.14 C179.65,233.17 204.0392,242.9989 228.8392,251.1389 " fill="none" id="SettingsManager-to-Connection" style="stroke:#000000;stroke-width:1.0;"/><polygon fill="#000000" points="234.54,253.01,227.2363,246.4028,229.7894,251.4507,224.7414,254.0038,234.54,253.01" style="stroke:#000000;stroke-width:1.0;"/><text fill="#000000" font-family="Verdana" font-size="13" lengthAdjust="spacing" textLength="35" x="156" y="214.037">CRUD</text></g><!--link NetworkManager to ActiveConnection--><g id="link_NetworkManager_ActiveConnection"><path d="M279.9,51.44 C317.47,73.02 373.3475,105.1309 410.9075,126.7109 " fill="none" id="NetworkManager-to-ActiveConnection" style="stroke:#000000;stroke-width:1.0;"/><polygon fill="#000000" points="416.11,129.7,410.299,121.7481,411.7746,127.2091,406.3136,128.6847,416.11,129.7" style="stroke:#000000;stroke-width:1.0;"/><text fill="#000000" font-family="Verdana" font-size="13" lengthAdjust="spacing" textLength="100" x="361" y="95.967">creates/removes</text></g><!--link WifiDevice to AccessPoint--><g id="link_WifiDevice_AccessPoint"><path d="M369.76,387.64 C356.93,409.23 339.1262,439.1726 326.2962,460.7526 " fill="none" id="WifiDevice-to-AccessPoint" style="stroke:#000000;stroke-width:1.0;"/><polygon fill="#000000" points="323.23,465.91,331.2676,460.2181,325.7852,461.6122,324.3911,456.1298,323.23,465.91" style="stroke:#000000;stroke-width:1.0;"/><text fill="#000000" font-family="Verdana" font-size="13" lengthAdjust="spacing" textLength="43" x="351" y="432.167">fetches</text></g><!--reverse link Connection to AccessPoint--><g id="link_Connection_AccessPoint"><path d="M287.1172,299.3632 C292.6072,340.2432 303.96,424.92 309.46,465.89 " fill="none" id="Connection-backto-AccessPoint" style="stroke:#000000;stroke-width:1.0;"/><polygon fill="#000000" points="285.52,287.47,282.3542,293.949,287.1172,299.3632,290.283,292.8842,285.52,287.47" style="stroke:#000000;stroke-width:1.0;"/></g><!--reverse link Connection to WifiDevice--><g id="link_Connection_WifiDevice"><path d="M310.3828,296.0677 C327.7328,313.4277 344.83,330.54 362.16,347.89 " fill="none" id="Connection-backto-WifiDevice" style="stroke:#000000;stroke-width:1.0;"/><polygon fill="#000000" points="301.9,287.58,303.3122,294.6515,310.3828,296.0677,308.9707,288.9963,301.9,287.58" style="stroke:#000000;stroke-width:1.0;"/></g><!--reverse link ActiveConnection to Connection--><g id="link_ActiveConnection_Connection"><path d="M412.1249,176.3853 C381.2549,197.9653 340.89,226.19 310.03,247.77 " fill="none" id="ActiveConnection-backto-Connection" style="stroke:#000000;stroke-width:1.0;"/><polygon fill="#000000" points="421.96,169.51,414.7507,169.6693,412.1249,176.3853,419.3342,176.226,421.96,169.51" style="stroke:#000000;stroke-width:1.0;"/></g><!--reverse link ActiveConnection to WifiDevice--><g id="link_ActiveConnection_WifiDevice"><path d="M439.479,180.847 C426.619,221.727 399.84,306.85 386.95,347.83 " fill="none" id="ActiveConnection-backto-WifiDevice" style="stroke:#000000;stroke-width:1.0;"/><polygon fill="#000000" points="443.08,169.4,437.4639,173.9232,439.479,180.847,445.0952,176.3238,443.08,169.4" style="stroke:#000000;stroke-width:1.0;"/></g><!--SRC=[TL7B2i903BptA-9LMBpt84XxLKGHpykQrc2RbTrGVzzMh4qVvhJ9J2R3x4hkM2CyAqkS17HYkQmGhbHGZWqvLCETSnZZqHCBgF4PHOZBkBTiImmAoJnpsv1d6Ca8DRYC7L1UFZnwgMJSWp5RBTfN2hRJj89nSyFVEvau-xEUGdQwv4kdPauxiWluEHImzarxP8ZgkpE4f2g50iNTMxwIMnip3dM2gL-OMUbmdU4YGGcy0G00]--></g></svg>